<svg width="155" height="38" viewBox="0 0 155 38" fill="none" xmlns="http://www.w3.org/2000/svg">
<path opacity="0.3" d="M0.271435 35.3775C-0.106867 35.7799 -0.0873522 36.4128 0.315023 36.7911C0.717398 37.1694 1.35026 37.1499 1.72856 36.7475L0.271435 35.3775ZM152.989 37.0624C153.541 37.0685 153.994 36.6258 154 36.0735L154.099 27.0741C154.105 26.5218 153.663 26.0692 153.11 26.0631C152.558 26.057 152.106 26.4998 152.099 27.052L152.011 35.0515L144.012 34.9632C143.459 34.9571 143.007 35.3998 143.001 35.9521C142.995 36.5044 143.437 36.957 143.99 36.9631L152.989 37.0624ZM3.11481 35.3055C3.50186 34.9115 3.49625 34.2784 3.10229 33.8913C2.70832 33.5042 2.07518 33.5099 1.68813 33.9038L3.11481 35.3055ZM4.64958 31.0123C4.24674 31.3901 4.22643 32.0229 4.60424 32.4258C4.98204 32.8286 5.61488 32.8489 6.01772 32.4711L4.64958 31.0123ZM9.0311 29.751C9.44788 29.3886 9.49198 28.757 9.1296 28.3402C8.76723 27.9234 8.1356 27.8793 7.71882 28.2417L9.0311 29.751ZM10.884 25.5878C10.4546 25.9351 10.388 26.5648 10.7353 26.9942C11.0826 27.4236 11.7123 27.4901 12.1417 27.1428L10.884 25.5878ZM15.341 24.6452C15.7821 24.3128 15.8702 23.6858 15.5378 23.2447C15.2055 22.8037 14.5785 22.7155 14.1374 23.0479L15.341 24.6452ZM17.4739 20.6209C17.0219 20.9382 16.9127 21.5619 17.23 22.0139C17.5473 22.4659 18.171 22.5751 18.623 22.2578L17.4739 20.6209ZM21.9833 19.9817C22.4457 19.6796 22.5757 19.0599 22.2736 18.5976C21.9716 18.1352 21.3519 18.0052 20.8895 18.3073L21.9833 19.9817ZM24.3811 16.1088C23.9089 16.3952 23.7582 17.0102 24.0446 17.4824C24.331 17.9546 24.946 18.1052 25.4182 17.8188L24.3811 16.1088ZM28.9244 15.7723C29.4061 15.5021 29.5774 14.8925 29.3071 14.4109C29.0368 13.9293 28.4273 13.7579 27.9456 14.0282L28.9244 15.7723ZM31.5804 12.0694C31.0898 12.323 30.8976 12.9263 31.1513 13.4169C31.4049 13.9075 32.0082 14.0997 32.4988 13.8461L31.5804 12.0694ZM36.1381 12.0445C36.6373 11.8082 36.8504 11.212 36.6141 10.7128C36.3779 10.2136 35.7816 10.0005 35.2824 10.2368L36.1381 12.0445ZM39.0488 8.53552C38.5415 8.75378 38.3072 9.34199 38.5255 9.84931C38.7437 10.3566 39.3319 10.591 39.8392 10.3727L39.0488 8.53552ZM43.5932 8.8383C44.1082 8.6388 44.3639 8.05958 44.1644 7.54459C43.9649 7.0296 43.3857 6.77385 42.8707 6.97336L43.5932 8.8383ZM46.7463 5.5549C46.2242 5.73487 45.9468 6.30405 46.1268 6.82619C46.3067 7.34832 46.8759 7.6257 47.3981 7.44573L46.7463 5.5549ZM51.2543 6.19922C51.783 6.03961 52.0822 5.48161 51.9226 4.95289C51.763 4.42417 51.205 4.12495 50.6763 4.28456L51.2543 6.19922ZM54.656 3.16883C54.1213 3.30723 53.8001 3.85286 53.9385 4.38752C54.0769 4.92218 54.6226 5.24341 55.1572 5.105L54.656 3.16883ZM59.1022 4.16924C59.642 4.05286 59.9854 3.52086 59.869 2.98097C59.7526 2.44109 59.2206 2.09777 58.6807 2.21414L59.1022 4.16924ZM62.7436 1.42709C62.1993 1.52064 61.8339 2.03772 61.9275 2.58203C62.021 3.12633 62.5381 3.49174 63.0824 3.39819L62.7436 1.42709ZM67.0824 2.79868C67.6302 2.72863 68.0175 2.22775 67.9475 1.67993C67.8774 1.1321 67.3765 0.744784 66.8287 0.814827L67.0824 2.79868ZM70.9398 0.380597C70.3894 0.426468 69.9805 0.909823 70.0263 1.4602C70.0722 2.01058 70.5555 2.41956 71.1059 2.37369L70.9398 0.380597ZM75.1468 2.12778C75.6986 2.10665 76.1289 1.64213 76.1077 1.09025C76.0866 0.538365 75.6221 0.108112 75.0702 0.129247L75.1468 2.12778ZM79.2135 0.0649272C78.6612 0.0608783 78.2103 0.505299 78.2062 1.05757C78.2022 1.60984 78.6466 2.06082 79.1989 2.06487L79.2135 0.0649272ZM83.2407 2.18739C83.7922 2.21684 84.2631 1.79363 84.2925 1.24213C84.322 0.690634 83.8988 0.219684 83.3473 0.190237L83.2407 2.18739ZM87.4679 0.505927C86.9183 0.451003 86.4283 0.851974 86.3734 1.40152C86.3185 1.95107 86.7194 2.44109 87.269 2.49601L87.4679 0.505927ZM91.285 2.99178C91.8314 3.07214 92.3395 2.69434 92.4198 2.14793C92.5002 1.60153 92.1224 1.09343 91.576 1.01306L91.285 2.99178ZM95.6667 1.71209C95.1246 1.60648 94.5995 1.96031 94.4939 2.5024C94.3883 3.0445 94.7421 3.56957 95.2842 3.67518L95.6667 1.71209ZM99.227 4.53757C99.7636 4.66787 100.304 4.33842 100.435 3.80173C100.565 3.26503 100.236 2.72433 99.6988 2.59403L99.227 4.53757ZM103.691 3.65951C103.16 3.50509 102.605 3.80977 102.451 4.34003C102.297 4.87029 102.601 5.42533 103.132 5.57975L103.691 3.65951ZM107.002 6.80125C107.524 6.97914 108.092 6.69948 108.27 6.17663C108.448 5.65378 108.169 5.08572 107.646 4.90783L107.002 6.80125ZM111.527 6.3235C111.013 6.12309 110.433 6.37783 110.233 6.89247C110.032 7.40711 110.287 7.98677 110.802 8.18718L111.527 6.3235ZM114.534 9.73244C115.04 9.95437 115.629 9.7243 115.851 9.21856C116.073 8.71283 115.843 8.12294 115.337 7.90102L114.534 9.73244ZM119.102 9.64687C118.606 9.40432 118.007 9.60992 117.765 10.1061C117.522 10.6023 117.728 11.2011 118.224 11.4437L119.102 9.64687ZM121.818 13.2898C122.304 13.5517 122.91 13.3699 123.172 12.8837C123.434 12.3975 123.253 11.791 122.766 11.529L121.818 13.2898ZM126.36 13.5548C125.884 13.2745 125.271 13.4331 124.991 13.909C124.71 14.3848 124.869 14.9978 125.345 15.2781L126.36 13.5548ZM128.821 17.413C129.286 17.7106 129.904 17.5747 130.202 17.1095C130.5 16.6442 130.364 16.0258 129.898 15.7282L128.821 17.413ZM133.311 17.9965C132.856 17.6829 132.234 17.7971 131.92 18.2517C131.606 18.7063 131.721 19.3291 132.175 19.6427L133.311 17.9965ZM135.495 22.0178C135.939 22.3466 136.565 22.2534 136.894 21.8096C137.223 21.3659 137.13 20.7396 136.686 20.4108L135.495 22.0178ZM139.942 22.9054C139.509 22.5626 138.88 22.6358 138.537 23.0688C138.195 23.5019 138.268 24.1308 138.701 24.4735L139.942 22.9054ZM141.854 27.0496C142.276 27.4055 142.907 27.3516 143.263 26.9293C143.619 26.507 143.565 25.8761 143.143 25.5202L141.854 27.0496ZM146.25 28.2172C145.838 27.8492 145.206 27.8847 144.838 28.2965C144.47 28.7083 144.505 29.3405 144.917 29.7085L146.25 28.2172ZM147.91 32.4597C148.312 32.839 148.945 32.8211 149.324 32.4197C149.703 32.0182 149.685 31.3853 149.284 31.006L147.91 32.4597ZM152.239 33.8738C151.848 33.484 151.215 33.4853 150.825 33.8765C150.435 34.2678 150.436 34.901 150.828 35.2907L152.239 33.8738ZM1.72856 36.7475C2.17725 36.2702 2.63941 35.7893 3.11481 35.3055L1.68813 33.9038C1.20263 34.398 0.730305 34.8895 0.271435 35.3775L1.72856 36.7475ZM6.01772 32.4711C6.98022 31.5684 7.98522 30.6604 9.0311 29.751L7.71882 28.2417C6.65419 29.1674 5.63055 30.0923 4.64958 31.0123L6.01772 32.4711ZM12.1417 27.1428C13.1753 26.3068 14.2422 25.4732 15.341 24.6452L14.1374 23.0479C13.0202 23.8897 11.9353 24.7374 10.884 25.5878L12.1417 27.1428ZM18.623 22.2578C19.7162 21.4903 20.8367 20.7307 21.9833 19.9817L20.8895 18.3073C19.724 19.0687 18.5851 19.8408 17.4739 20.6209L18.623 22.2578ZM25.4182 17.8188C26.5643 17.1237 27.7333 16.4408 28.9244 15.7723L27.9456 14.0282C26.7346 14.7079 25.5461 15.4022 24.3811 16.1088L25.4182 17.8188ZM32.4988 13.8461C33.6924 13.229 34.9058 12.6278 36.1381 12.0445L35.2824 10.2368C34.0287 10.8303 32.7944 11.4419 31.5804 12.0694L32.4988 13.8461ZM39.8392 10.3727C41.0737 9.84159 42.3253 9.32947 43.5932 8.8383L42.8707 6.97336C41.5796 7.47353 40.3054 7.99492 39.0488 8.53552L39.8392 10.3727ZM47.3981 7.44573C48.6689 7.00769 49.9545 6.59158 51.2543 6.19922L50.6763 4.28456C49.3513 4.68453 48.0411 5.10861 46.7463 5.5549L47.3981 7.44573ZM55.1572 5.105C56.4596 4.76786 57.7748 4.45536 59.1022 4.16924L58.6807 2.21414C57.3261 2.50613 55.9843 2.82496 54.656 3.16883L55.1572 5.105ZM63.0824 3.39819C64.4049 3.17088 65.7384 2.97051 67.0824 2.79868L66.8287 0.814827C65.4559 0.990354 64.0939 1.195 62.7436 1.42709L63.0824 3.39819ZM71.1059 2.37369C72.4437 2.26219 73.7908 2.17971 75.1468 2.12778L75.0702 0.129247C73.684 0.182336 72.307 0.26665 70.9398 0.380597L71.1059 2.37369ZM79.1989 2.06487C80.5385 2.07469 81.8859 2.11506 83.2407 2.18739L83.3473 0.190237C81.9616 0.116249 80.5835 0.0749707 79.2135 0.0649272L79.1989 2.06487ZM87.269 2.49601C88.6014 2.62918 89.9402 2.79399 91.285 2.99178L91.576 1.01306C90.2004 0.810742 88.8308 0.642148 87.4679 0.505927L87.269 2.49601ZM95.2842 3.67518C96.5935 3.93027 97.9079 4.21733 99.227 4.53757L99.6988 2.59403C98.35 2.26657 97.0058 1.97299 95.6667 1.71209L95.2842 3.67518ZM103.132 5.57975C104.418 5.95429 105.708 6.36109 107.002 6.80125L107.646 4.90783C106.324 4.45811 105.005 4.04236 103.691 3.65951L103.132 5.57975ZM110.802 8.18718C112.043 8.67055 113.287 9.18531 114.534 9.73244L115.337 7.90102C114.065 7.34263 112.795 6.81711 111.527 6.3235L110.802 8.18718ZM118.224 11.4437C119.42 12.0283 120.618 12.6434 121.818 13.2898L122.766 11.529C121.544 10.8703 120.322 10.2431 119.102 9.64687L118.224 11.4437ZM125.345 15.2781C126.502 15.9597 127.661 16.6711 128.821 17.413L129.898 15.7282C128.718 14.9732 127.538 14.249 126.36 13.5548L125.345 15.2781ZM132.175 19.6427C133.281 20.4059 134.388 21.1973 135.495 22.0178L136.686 20.4108C135.561 19.5771 134.436 18.7725 133.311 17.9965L132.175 19.6427ZM138.701 24.4735C139.752 25.3054 140.803 26.1639 141.854 27.0496L143.143 25.5202C142.076 24.6215 141.009 23.75 139.942 22.9054L138.701 24.4735ZM144.917 29.7085C145.915 30.6004 146.913 31.5173 147.91 32.4597L149.284 31.006C148.273 30.051 147.262 29.1216 146.25 28.2172L144.917 29.7085ZM150.828 35.2907C151.314 35.7749 151.799 36.2652 152.285 36.7618L153.715 35.3632C153.223 34.8605 152.731 34.3641 152.239 33.8738L150.828 35.2907Z" fill="#EC681B"/>
</svg>
