<svg width="178" height="42" viewBox="0 0 178 42" fill="none" xmlns="http://www.w3.org/2000/svg">
<path opacity="0.3" d="M177 1.04799C176.992 0.495762 176.538 0.0545845 175.985 0.0625916L166.986 0.193066C166.434 0.201074 165.993 0.655232 166.001 1.20746C166.009 1.75969 166.463 2.20086 167.015 2.19286L175.015 2.07688L175.131 10.076C175.139 10.6283 175.593 11.0694 176.145 11.0614C176.697 11.0534 177.138 10.5993 177.13 10.047L177 1.04799ZM1.70335 0.351654C1.31076 -0.0367927 0.677609 -0.0334358 0.289166 0.359154C-0.0992924 0.751743 -0.0959354 1.3849 0.296658 1.77335L1.70335 0.351654ZM173.933 1.72905C173.541 2.11794 173.538 2.7511 173.927 3.14325C174.316 3.53542 174.949 3.53807 175.341 3.1492L173.933 1.72905ZM172.474 5.89318C172.879 5.51833 172.904 4.88565 172.529 4.48006C172.154 4.07447 171.522 4.04955 171.116 4.42441L172.474 5.89318ZM168.207 7.02572C167.79 7.38722 167.744 8.01875 168.106 8.43629C168.467 8.85383 169.099 8.89927 169.516 8.53778L168.207 7.02572ZM166.477 11.0883C166.905 10.7397 166.97 10.1099 166.621 9.68146C166.273 9.25304 165.643 9.18827 165.215 9.53679L166.477 11.0883ZM162.144 11.9598C161.706 12.2956 161.622 12.9232 161.958 13.3617C162.294 13.8002 162.922 13.8835 163.36 13.5478L162.144 11.9598ZM160.178 15.913C160.626 15.5899 160.727 14.9648 160.404 14.5169C160.081 14.069 159.456 13.9678 159.008 14.2909L160.178 15.913ZM155.818 16.5242C155.361 16.8346 155.243 17.4565 155.553 17.9133C155.863 18.3701 156.485 18.4888 156.942 18.1784L155.818 16.5242ZM153.639 20.3564C154.104 20.0588 154.24 19.4404 153.943 18.9752C153.645 18.5099 153.027 18.374 152.561 18.6716L153.639 20.3564ZM149.241 20.7313C148.767 21.0159 148.614 21.6303 148.899 22.1036C149.183 22.5769 149.798 22.73 150.271 22.4454L149.241 20.7313ZM146.841 24.443C147.322 24.1718 147.492 23.5619 147.221 23.0808C146.949 22.5997 146.34 22.4295 145.858 22.7008L146.841 24.443ZM142.436 24.5674C141.948 24.8251 141.76 25.4299 142.018 25.9184C142.276 26.407 142.881 26.5941 143.369 26.3365L142.436 24.5674ZM139.844 28.1322C140.339 27.8886 140.544 27.2893 140.3 26.7937C140.056 26.298 139.457 26.0937 138.961 26.3374L139.844 28.1322ZM135.431 28.0102C134.929 28.2395 134.707 28.8326 134.936 29.3351C135.166 29.8376 135.759 30.059 136.261 29.8298L135.431 28.0102ZM132.627 31.4241C133.136 31.2097 133.375 30.6233 133.16 30.1143C132.946 29.6054 132.359 29.3665 131.85 29.5809L132.627 31.4241ZM128.24 31.0389C127.725 31.238 127.468 31.817 127.667 32.3321C127.867 32.8473 128.446 33.1035 128.961 32.9044L128.24 31.0389ZM125.244 34.2765C125.765 34.0932 126.038 33.5222 125.855 33.0013C125.672 32.4803 125.101 32.2065 124.58 32.3898L125.244 34.2765ZM120.874 33.6291C120.348 33.7961 120.056 34.3582 120.223 34.8846C120.39 35.4111 120.952 35.7025 121.478 35.5356L120.874 33.6291ZM117.686 36.6723C118.218 36.5221 118.527 35.9696 118.377 35.4381C118.227 34.9066 117.674 34.5974 117.143 34.7475L117.686 36.6723ZM113.375 35.7459C112.839 35.8787 112.512 36.4209 112.645 36.957C112.778 37.4931 113.32 37.82 113.856 37.6873L113.375 35.7459ZM109.986 38.5776C110.527 38.4628 110.871 37.9318 110.757 37.3916C110.642 36.8514 110.111 36.5065 109.571 36.6213L109.986 38.5776ZM105.748 37.3665C105.204 37.463 104.842 37.982 104.938 38.5258C105.034 39.0696 105.553 39.4322 106.097 39.3358L105.748 37.3665ZM102.183 39.9606C102.73 39.883 103.11 39.3768 103.033 38.83C102.955 38.2832 102.449 37.9028 101.902 37.9804L102.183 39.9606ZM98.0288 38.4605C97.4796 38.5187 97.0816 39.0112 97.1398 39.5604C97.198 40.1096 97.6904 40.5076 98.2396 40.4494L98.0288 38.4605ZM94.2924 40.7968C94.8433 40.7582 95.2587 40.2803 95.2201 39.7294C95.1816 39.1785 94.7037 38.7631 94.1528 38.8016L94.2924 40.7968ZM90.2649 39.0029C89.7129 39.0214 89.2805 39.4839 89.299 40.0359C89.3175 40.5878 89.78 41.0203 90.3319 41.0018L90.2649 39.0029ZM86.3534 41.0619C86.9057 41.0638 87.3549 40.6176 87.3567 40.0653C87.3586 39.513 86.9124 39.0638 86.3601 39.0619L86.3534 41.0619ZM82.4775 38.9771C81.9256 38.9548 81.4602 39.384 81.4379 39.9359C81.4156 40.4877 81.8449 40.9531 82.3967 40.9754L82.4775 38.9771ZM78.4338 40.7411C78.9844 40.784 79.4655 40.3724 79.5084 39.8218C79.5514 39.2712 79.1398 38.79 78.5892 38.7471L78.4338 40.7411ZM74.7073 38.3711C74.1587 38.3076 73.6625 38.7008 73.5989 39.2494C73.5353 39.798 73.9285 40.2943 74.4772 40.3579L74.7073 38.3711ZM70.5543 39.8288C71.1002 39.9128 71.6108 39.5385 71.6949 38.9926C71.7789 38.4467 71.4045 37.9361 70.8587 37.8521L70.5543 39.8288ZM67.0112 37.1855C66.4689 37.081 65.9446 37.4359 65.8401 37.9782C65.7356 38.5206 66.0906 39.0449 66.6329 39.1494L67.0112 37.1855ZM62.7599 38.3283C63.2979 38.4529 63.8351 38.1176 63.9596 37.5796C64.0841 37.0415 63.7489 36.5044 63.2108 36.3798L62.7599 38.3283ZM59.4337 35.4319C58.9006 35.2876 58.3515 35.6028 58.2072 36.136C58.0629 36.6691 58.3782 37.2182 58.9113 37.3625L59.4337 35.4319ZM55.0938 36.2541C55.6213 36.4177 56.1815 36.1227 56.3451 35.5952C56.5087 35.0677 56.2138 34.5075 55.6863 34.3439L55.0938 36.2541ZM51.9992 33.1274C51.4779 32.945 50.9074 33.2198 50.7251 33.7411C50.5427 34.2624 50.8175 34.8328 51.3388 35.0152L51.9992 33.1274ZM47.5957 33.6307C48.1102 33.8314 48.69 33.577 48.8907 33.0625C49.0914 32.548 48.837 31.9682 48.3225 31.7675L47.5957 33.6307ZM44.7415 30.2993C44.2341 30.0811 43.6459 30.3155 43.4277 30.8229C43.2096 31.3302 43.444 31.9184 43.9513 32.1366L44.7415 30.2993ZM40.3161 30.4996C40.8158 30.7348 41.4116 30.5204 41.6468 30.0207C41.882 29.521 41.6676 28.9253 41.1679 28.6901L40.3161 30.4996ZM37.6885 26.9821C37.1967 26.7307 36.5943 26.9256 36.3429 27.4174C36.0916 27.9091 36.2865 28.5116 36.7782 28.7629L37.6885 26.9821ZM33.2632 26.8943C33.7467 27.1613 34.355 26.9858 34.622 26.5023C34.8889 26.0188 34.7134 25.4105 34.2299 25.1435L33.2632 26.8943ZM30.8612 23.2148C30.3862 22.9331 29.7727 23.0899 29.491 23.5649C29.2093 24.0399 29.366 24.6534 29.8411 24.9351L30.8612 23.2148ZM26.4497 22.8542C26.9161 23.15 27.534 23.0118 27.8298 22.5454C28.1257 22.0791 27.9874 21.4612 27.5211 21.1653L26.4497 22.8542ZM24.2731 19.0385C23.8154 18.7293 23.1938 18.8497 22.8847 19.3074C22.5755 19.7651 22.696 20.3867 23.1536 20.6958L24.2731 19.0385ZM19.8846 18.4199C20.3334 18.7417 20.9582 18.6388 21.28 18.19C21.6019 17.7412 21.499 17.1165 21.0502 16.7946L19.8846 18.4199ZM17.9304 14.4932C17.4903 14.1595 16.8631 14.2456 16.5293 14.6857C16.1956 15.1257 16.2818 15.753 16.7218 16.0867L17.9304 14.4932ZM13.5696 13.63C14.0007 13.9751 14.6301 13.9054 14.9752 13.4743C15.3203 13.0431 15.2506 12.4138 14.8194 12.0686L13.5696 13.63ZM11.8329 9.61646C11.4104 9.26079 10.7795 9.31496 10.4239 9.73747C10.0682 10.16 10.1224 10.7908 10.5449 11.1465L11.8329 9.61646ZM7.52235 8.53843C7.93612 8.90424 8.56808 8.86537 8.9339 8.4516C9.29971 8.03784 9.26083 7.40587 8.84707 7.04006L7.52235 8.53843ZM5.97494 4.44126C5.56965 4.06608 4.93696 4.09048 4.56178 4.49577C4.1866 4.90106 4.211 5.53375 4.61628 5.90894L5.97494 4.44126ZM1.73547 3.18148C2.13229 3.5656 2.76538 3.5553 3.14949 3.15847C3.53361 2.76164 3.5233 2.12856 3.12648 1.74444L1.73547 3.18148ZM175.283 0.365704C174.844 0.817375 174.394 1.27198 173.933 1.72905L175.341 3.1492C175.811 2.68347 176.27 2.22001 176.717 1.75927L175.283 0.365704ZM171.116 4.42441C170.183 5.28721 169.213 6.1553 168.207 7.02572L169.516 8.53778C170.538 7.65335 171.524 6.77084 172.474 5.89318L171.116 4.42441ZM165.215 9.53679C164.22 10.3457 163.196 11.1542 162.144 11.9598L163.36 13.5478C164.428 12.7302 165.467 11.9096 166.477 11.0883L165.215 9.53679ZM159.008 14.2909C157.968 15.0405 156.905 15.7856 155.818 16.5242L156.942 18.1784C158.045 17.4292 159.123 16.6734 160.178 15.913L159.008 14.2909ZM152.561 18.6716C151.475 19.3665 150.368 20.0536 149.241 20.7313L150.271 22.4454C151.414 21.7581 152.537 21.0612 153.639 20.3564L152.561 18.6716ZM145.858 22.7008C144.735 23.3338 143.595 23.9566 142.436 24.5674L143.369 26.3365C144.544 25.7168 145.702 25.0851 146.841 24.443L145.858 22.7008ZM138.961 26.3374C137.8 26.9082 136.623 27.4663 135.431 28.0102L136.261 29.8298C137.471 29.2777 138.666 28.7114 139.844 28.1322L138.961 26.3374ZM131.85 29.5809C130.661 30.082 129.457 30.5685 128.24 31.0389L128.961 32.9044C130.197 32.4267 131.419 31.9328 132.627 31.4241L131.85 29.5809ZM124.58 32.3898C123.357 32.8201 122.121 33.2336 120.874 33.6291L121.478 35.5356C122.746 35.1337 124.001 34.7135 125.244 34.2765L124.58 32.3898ZM117.143 34.7475C115.898 35.0992 114.642 35.4323 113.375 35.7459L113.856 37.6873C115.144 37.3684 116.421 37.0297 117.686 36.6723L117.143 34.7475ZM109.571 36.6213C108.306 36.8901 107.032 37.1389 105.748 37.3665L106.097 39.3358C107.403 39.1042 108.7 38.8511 109.986 38.5776L109.571 36.6213ZM101.902 37.9804C100.619 38.1624 99.3282 38.3228 98.0288 38.4605L98.2396 40.4494C99.5627 40.3091 100.877 40.1458 102.183 39.9606L101.902 37.9804ZM94.1528 38.8016C92.8641 38.8918 91.568 38.9592 90.2649 39.0029L90.3319 41.0018C91.6595 40.9573 92.9798 40.8886 94.2924 40.7968L94.1528 38.8016ZM86.3601 39.0619C85.0721 39.0576 83.7778 39.0296 82.4775 38.9771L82.3967 40.9754C83.7219 41.029 85.0409 41.0575 86.3534 41.0619L86.3601 39.0619ZM78.5892 38.7471C77.3005 38.6467 76.0065 38.5217 74.7073 38.3711L74.4772 40.3579C75.8013 40.5113 77.1203 40.6387 78.4338 40.7411L78.5892 38.7471ZM70.8587 37.8521C69.5806 37.6553 68.298 37.4333 67.0112 37.1855L66.6329 39.1494C67.9444 39.402 69.2516 39.6282 70.5543 39.8288L70.8587 37.8521ZM63.2108 36.3798C61.9554 36.0893 60.6962 35.7736 59.4337 35.4319L58.9113 37.3625C60.1976 37.7105 61.4805 38.0323 62.7599 38.3283L63.2108 36.3798ZM55.6863 34.3439C54.4601 33.9635 53.2309 33.5582 51.9992 33.1274L51.3388 35.0152C52.593 35.4539 53.8448 35.8667 55.0938 36.2541L55.6863 34.3439ZM48.3225 31.7675C47.131 31.3027 45.9372 30.8135 44.7415 30.2993L43.9513 32.1366C45.168 32.6598 46.3829 33.1576 47.5957 33.6307L48.3225 31.7675ZM41.1679 28.6901C40.0097 28.1448 38.8498 27.5757 37.6885 26.9821L36.7782 28.7629C37.9588 29.3664 39.1382 29.9451 40.3161 30.4996L41.1679 28.6901ZM34.2299 25.1435C33.1081 24.524 31.9851 23.8813 30.8612 23.2148L29.8411 24.9351C30.9825 25.612 32.1233 26.2649 33.2632 26.8943L34.2299 25.1435ZM27.5211 21.1653C26.439 20.4789 25.3563 19.7701 24.2731 19.0385L23.1536 20.6958C24.2526 21.4381 25.3514 22.1574 26.4497 22.8542L27.5211 21.1653ZM21.0502 16.7946C20.0105 16.049 18.9705 15.282 17.9304 14.4932L16.7218 16.0867C17.776 16.8863 18.8304 17.6639 19.8846 18.4199L21.0502 16.7946ZM14.8194 12.0686C13.8239 11.2717 12.8283 10.4544 11.8329 9.61646L10.5449 11.1465C11.5528 11.995 12.5611 12.8227 13.5696 13.63L14.8194 12.0686ZM8.84707 7.04006C7.88942 6.19339 6.93199 5.32723 5.97494 4.44126L4.61628 5.90894C5.58442 6.80516 6.55316 7.68156 7.52235 8.53843L8.84707 7.04006ZM3.12648 1.74444C2.65197 1.28514 2.17759 0.820892 1.70335 0.351654L0.296658 1.77335C0.776074 2.24771 1.25569 2.71707 1.73547 3.18148L3.12648 1.74444Z" fill="#EC681B"/>
</svg>
